<svg width="22" height="21" viewBox="0 0 22 21" fill="none" xmlns="http://www.w3.org/2000/svg">
<path fill-rule="evenodd" clip-rule="evenodd" d="M4.77475 2.28389C4.77475 3.52898 3.82672 4.5366 2.34415 4.5366C0.919355 4.5366 -0.0286772 3.52898 0.000662254 2.28389C-0.0286772 0.978283 0.919332 0 2.37255 0C3.82669 0 4.74633 0.978283 4.77475 2.28389ZM0.119858 20.8191V6.31621H4.62712V20.8181H0.119858V20.8191Z" fill="#F19B72"/>
<path fill-rule="evenodd" clip-rule="evenodd" d="M8.23977 10.9446C8.23977 9.13564 8.18017 7.59349 8.12057 6.31814H12.0356L12.2437 8.30497H12.3326C12.9258 7.38537 14.4084 5.99266 16.8106 5.99266C19.7757 5.99266 22 7.95015 22 12.219V20.821H17.4927V12.7838C17.4927 10.9143 16.8408 9.63991 15.2097 9.63991C13.9637 9.63991 13.2229 10.4999 12.9268 11.3297C12.8076 11.6267 12.7489 12.0412 12.7489 12.4574V20.821H8.24159V10.9446H8.23977Z" fill="#F19B72"/>
</svg>
