<svg width="50" height="39" viewBox="0 0 50 39" fill="none" xmlns="http://www.w3.org/2000/svg">
<path fill-rule="evenodd" clip-rule="evenodd" d="M50 4.61619C48.1625 5.40001 46.1833 5.9279 44.1083 6.16624C46.2271 4.94731 47.8542 3.01834 48.6187 0.719842C46.6396 1.84899 44.4396 2.66641 42.1062 3.10951C40.2333 1.19654 37.5667 0 34.6167 0C28.9521 0 24.3604 4.40842 24.3604 9.84523C24.3604 10.6161 24.4521 11.3679 24.6271 12.0893C16.1006 11.6798 8.5427 7.75929 3.48312 1.8026C2.59979 3.25668 2.09479 4.94731 2.09479 6.75171C2.09479 10.1668 3.90313 13.1803 6.65792 14.9461C4.97458 14.8949 3.39479 14.4518 2.00979 13.7144V13.8375C2.00979 18.6091 5.54792 22.587 10.2377 23.494C9.37771 23.718 8.47104 23.8395 7.53625 23.8395C6.87459 23.8395 6.23125 23.7772 5.60458 23.662C6.90958 27.5729 10.6994 30.4201 15.1873 30.5001C11.6775 33.1393 7.25459 34.7147 2.44813 34.7147C1.61813 34.7147 0.801667 34.6684 0 34.5756C4.53979 37.3686 9.93104 39 15.724 39C34.5917 39 44.9083 23.9979 44.9083 10.9888C44.9083 10.5617 44.9 10.1364 44.8792 9.71565C46.8854 8.32396 48.625 6.59015 50 4.61619Z" fill="#EA9E73"/>
</svg>
